<mxfile host="app.diagrams.net" modified="2020-11-22T06:31:42.924Z" agent="5.0 (Windows NT 10.0; Win64; x64) AppleWebKit/537.36 (KHTML, like Gecko) Chrome/85.0.4183.83 Safari/537.36" etag="XITSwRJJyQkHS0nUyM8X" version="13.10.0" type="github">
  <diagram id="cpqwnAcwItm0auoWL9Nh" name="Page-1">
    <mxGraphModel dx="1038" dy="548" grid="1" gridSize="10" guides="1" tooltips="1" connect="1" arrows="1" fold="1" page="1" pageScale="1" pageWidth="827" pageHeight="1169" math="0" shadow="0">
      <root>
        <mxCell id="0" />
        <mxCell id="1" parent="0" />
        <mxCell id="zwnEi_5o3spXwZydEVL7-3" value="" style="dashed=0;outlineConnect=0;html=1;align=center;labelPosition=center;verticalLabelPosition=bottom;verticalAlign=top;shape=mxgraph.weblogos.android;fillColor=#A4CA39;strokeColor=none" vertex="1" parent="1">
          <mxGeometry x="180" y="150" width="67.60000000000001" height="80" as="geometry" />
        </mxCell>
        <mxCell id="zwnEi_5o3spXwZydEVL7-4" value="" style="dashed=0;outlineConnect=0;html=1;align=center;labelPosition=center;verticalLabelPosition=bottom;verticalAlign=top;shape=mxgraph.weblogos.aim" vertex="1" parent="1">
          <mxGeometry x="170" y="340" width="62.400000000000006" height="68.4" as="geometry" />
        </mxCell>
      </root>
    </mxGraphModel>
  </diagram>
</mxfile>
